<svg xmlns="http://www.w3.org/2000/svg" viewBox="0 0 964.86 511"><defs><style>.cls-1{fill:#01008e;}.cls-1,.cls-2{fill-rule:evenodd;}.cls-2{fill:#00003f;}</style></defs><title>Asset 1</title><g id="Layer_2" data-name="Layer 2"><g id="Layer_1-2" data-name="Layer 1"><polyline class="cls-1" points="176 312.45 178.61 345.23 228.27 357.03 266.16 374.07 296.22 400.29 310.59 388.49 328.88 347.85 349.79 343.92 425.58 351.78 451.71 359.65 442.57 404.22 433.42 437 585 427.82 579.77 351.78 548.41 282.3 424.27 222 331.5 233.79 266.16 305.9 237.41 321.63 186.45 319.01"/><path class="cls-2" d="M801,11.21c10.21,12.41-4.84,30-13.37,38.63C783.5,54,780.07,58.91,776,63.22s-9,7.61-12.61,11.72c-3.77,4.32-8.12,9-11.27,13.9-2,3.08-5,6.51-5.95,10.09-1.42,5.13-.23,2.17,1.65,5.07s2.57,3.14,3.22,7.27a25.06,25.06,0,0,0,3.71,10.39c3.57,5.66,7.44,11,10,17.23,3.35,8.31,5.72,16.75,8.39,25.31,1,3.34,1.75,7.16,3.43,10.23,2.38,4.37,2.72,4,6.27,1.28,10.61-8.13,21.33-16.72,32.39-24.47,6.33-4.44,12.91-8.78,19.59-12.67,4.59-2.67,14.45-7.42,16.75-12.37,3-6.57-1.7-12.6,4.82-18.65,4.25-3.94,11.18-6.12,16.71-7.08,7.82-1.35,16.47.58,24.28,1.28a78.82,78.82,0,0,0,23.37-1.68c11.86-2.47,34.65-16.16,42.33.28,3.37,7.2,1.09,15.17.46,22.55-.55,6.43-2.44,13.25-6.44,18.54-4.58,6-11.24,6.36-18.17,8-8.19,1.9-16.59,2.59-24.78,4.43A69,69,0,0,1,902,155.38c-3.69.17-9-1.33-12.25-.85-3.07.44-2,2.38-4.18,3.72-.87.55-2.65.16-3.2.6-1.5,1.2-1.93,2.25-3,4.44-3.47,6.93-8.72,13.69-13.18,20-3.76,5.35-8.12,11.9-12.54,16.67-9.37,10.13-18.48,21.28-27.73,31.86A154.66,154.66,0,0,1,810,247.59c-1.68,1.43-5.1,2.72-6,4.72-1.23,2.85,2.12,9.12,2.9,12,1.86,6.82,2.11,13.85,4.08,20.56,1.89,6.42,2.57,13.41,3,20.1,1,15.11,3,29.45,2.53,44.58-.42,13-.9,25.55-5.43,38.35-4.12,11.66-16.47,24.35-28,28.64-6.84,2.56-13.19,4.89-20.07,6.27s-14,2.77-20.7,4.7a216.13,216.13,0,0,1-38.71,7.3,397.83,397.83,0,0,1-50.6,1.14c-7.57-.26-15.35-.28-22.82-.26-7.74,0-15,1.55-22.77,2.36-27.3,2.87-56.16.57-83.45,3.37-13.48,1.38-26.95,4.05-40.67,4.21-12.29.14-24.74-.67-36.76-.73-3.81,0-7.13.29-10.94-.58-2-.47-4.83-2.26-6.85-1.23-1.77.91-3.11,4.72-4.21,6.34a57.35,57.35,0,0,1-8.41,9.34c-12.25,11.67-24.39,15.61-40.47,19.89-7.38,2-11,3-17.22,7.48a64.73,64.73,0,0,1-16,8.46c-11.4,4.23-24.84,1-35.55-2.72-5.19-1.78-10.64-3.39-15.94-5.51-7.22-2.87-13.17-7.65-20.29-10.59.82,7.59-7.42,10.14-9.91,15.24-1.62,3.3-.64,8.48-2.36,12.2-1.6,3.46-4.06,6.72-7.91,7.63-5.24,1.23-14.62-4.6-18.3-8-2-1.89-3.87-6.92-6.37-7.75-3.27-1.1-9.25,3.73-12.34,4.82-14.8,5.22-29.78,7.69-45.67,5.61-16.09-2.11-30.84-7.82-45.93-13.24-29.55-10.61-55.27-28.08-78.42-49.12-1.28-1.17-3.15-2.21-4-3.74-.77-1.34-.71-4.51-1.21-5.25-1.51-2.23-3.77-1.84-6.6-2C23,431.44,16,429.33,9.27,423.48c-10.66-9.22-14.6-30.71,1.74-36.41a24.7,24.7,0,0,1,13.09-.85c1.78.37,8.41,4.38,10.1,4.11,2.56-.41,2.07-3.71,2.75-5.47A48.38,48.38,0,0,1,44,372.66,118.06,118.06,0,0,1,61,354.88c6.62-5.58,13.91-8.06,21.79-11.14,5.31-2.08,15.68-5.66,21.3-3.8,7.32,2.43,3.74,10.43-.88,13.23-6.59,4-14.5,5.64-21.18,9.69-7.37,4.47-14.1,10.58-20.85,15.95-5.43,4.32-10.13,9.66-15.65,13.8a38.52,38.52,0,0,0-4.3,3.62c-.16.21,0,1.92-.69,2.68-3.21,3.37-2.45,3-7.29,1.81-5.69-1.39-19.29-4.55-23.12,2.52-3.46,6.35,10.68,12.08,15.33,14,6.82,2.85,8.41,5.7,13.28,11.12S52,437.71,58.22,441.85c13.51,8.95,28.7,15.3,43.17,22.41,14.08,6.92,29.22,11.9,43.89,16.74,8.86,2.92,19.47,6.06,28.77,7s18.15-.62,27.34-2.41a65.18,65.18,0,0,0,10.3-2.62c1.71-.6,4.5-.69,5.86-1.75,2.11-1.64,1.23-2.94,1.61-5.74,1.63-12.26,10.14,1.43,13.9,5.51,2.91,3.15,5.77,7,9.59,9,4.79,2.5,5.62,1.32,7.2-2.8,2.94-7.72,4-16.5,15.15-15.37-8.77-7.5-17.13-13.88-24.64-22.9S226,430.44,218.92,421.3c-5.82-7.5-10.89-17.84-18.45-23.75-2.39-1.87-9.65-6.18-12.42-6.09-4.13.14-7.81,6.9-12.26,7.46-4.93.62-7.19-1.1-8.6-5.09-1.46-4.15,2-8.92.85-11.94-.33-.84-2.42-1.84-3.07-3.06a10.49,10.49,0,0,1-.75-6.26c.43-3,1.5-4.26,1.27-7.3-.26-3.54-1.81-6.12-.59-9.82,1.28-3.88,5.22-6,7.68-8.88,3.72-4.34,1.82-7.62.33-13.19-3.2-11.94-6.93-23.74-10.18-35.67-7.46,2.37-14.76,5-22.26,7.24-7.22,2.12-16.15,4-22.85,7.36-4,2-2.9.17-2.61,4.63.19,2.88,1.41,6.11,2,8.95,1.05,5.26,1.5,18.82,5.62,21.33,2.49,1.52,6.5-.69,9.24,2.38,2.31,2.59,1.62,6.34,3,9.22.86,1.78,2.53,2.46,3.57,4.1,2.17,3.43,1.94,6.31,2.32,10.16.24,2.42-.13,9.66,1.07,11.54,1.61,2.51,4.79,2.08,7.47,2.86A65.06,65.06,0,0,1,168,396.86c3,3.65,24.3,25,15,27.69-4.47,1.31-12.38-8.76-15.6-11.5a54.08,54.08,0,0,0-16.3-9.37c-14.84-5.71-28.27-10.85-44.44-8.47-6.93,1-15.35,4.08-22.32,3.41s-5.19-6.93-.81-10.42c3.92-3.12,9.38-2.24,11.1-7.47s-.13-12,2.65-17.25c2.38-4.53,8-9.22,12.31-11.84,1.89-1.14,5.12-1.93,6.11-3.62.81-1.38-2.53-9.29-3-10.93-2.26-8.06-4.72-16.12-6.64-24.26-1.77-7.55-2.24-11.46,5.71-14.2,12.14-4.18,24.86-6.14,37-10-2.15-5.61-8.87-.89-13.7-1.09-5.92-.24-12.77-2.18-18.4-4a33.66,33.66,0,0,1-23.47-27.7c-.44-2.91.93-8.75-.13-11.32s-3.83-3.62-5.89-5.35a49.35,49.35,0,0,1-12.92-16.94A30.83,30.83,0,0,1,72.91,202c.92-3.69,1.44-4.2.14-7.7-1.51-4-4-7.64-5.36-11.8a64.16,64.16,0,0,1-3.4-21.33c.14-8.06,3.37-11.68,5.52-18.79,1.69-5.61-.62-13.37-.23-19.6a53.16,53.16,0,0,1,6-21.46c5.41-10.9,14-22.58,25.13-28.29,2.21-1.13,5.83-1.2,7.8-2.51,2.45-1.63,2.64-4,3.6-6.9,2.28-6.82,5.14-12.34,10.08-17.56,16-16.9,44.12-22.89,66.65-21.46,4.05.25,7.91,2.17,11.74,1,2.66-.78,5.47-3.55,8.21-4.69a36.51,36.51,0,0,1,10.67-2.67,42.56,42.56,0,0,1,20.15,2.53c2.56.94,5,2,7.54,3,4,1.61,3.76.85,7.51.1,7.48-1.49,11.77-.39,18.4,2.8,1.76.85,4.56,1.48,6.07,2.67,2.15,1.69,3,6.82,5.42,7.77,1.33.54,5.43-1.42,7.14-1.7,3-.49,6-.06,9-.09,5.31-.06,10.93.14,15.79,2.65,3.66,1.9,8.06,5.55,11.21,8,4.35,3.36,7.08,9.72,12.52,11.49,2.13.69,4.43,0,6.61.58,2.83.76,5.56,2.82,7.85,4.63,3.95,3.12,7.3,10.37,11.32,11.64,2.69.85,6.86,0,9.93.84a21.32,21.32,0,0,1,9.92,5.61c5.45,5.57,7,13.8,7.23,21.35.06,2-1.2,7.77,0,9.58,1.09,1.6,5.16,2.52,6.82,4.17,5.2,5.14,7.54,13.7,8.07,20.75.6,8-1.48,13.69-2.91,21.38-.89,4.79-2,1.72,2,4.55,2.77,1.93,4.69,3.29,6.49,6.33,3.77,6.36,4.71,13.86,4.09,21.11-.77,9-5.36,15.79-7.42,24.35,9.5,0,19.74,2.51,29,4.26,3.42.65,6.08,2.53,9.12,4,2.62,1.3,4.58,1.46,7.05,2.32,6,2.09,4.84,1.74,9-2.54,16.6-17,40.24-27.31,64.07-27,13.3.19,26.16,1.94,38.59,6.73,5.15,2,10.88,4.12,15.45,7.23,5.29,3.6,6.08,3.56,13.08,3.71,25.34.52,49.94,14.14,68.38,30.63,1.65-11.06,19.63-17.7,28.33-22.29,3-1.56,5.71-2.38,7.17-5.32,1.37-2.74,1.29-8.4,2.2-11.64,1.68-5.94,3.63-13.21,3.47-19.48-.43-18.16-4.63-36.22-5.18-54.42-.13-4.57-.65-9.69,0-14.22.49-3.64,2.15-5.92-.24-9.29-4.54-6.41-12.92-8-15.73-16.44-4.54-13.59,3.26-27.48,13.9-35.56C704.05,50.45,710,49.47,715,43c4.42-5.88,8.16-12.83,13.2-18.17,4.23-4.48,8.08-10.48,12.92-14.21s12.26-6.41,18.19-8.22C773.5-2,791-1,801,11.21ZM355.94,352.55c-3.31.14-6.65.52-10,.51-2,0-6.71-1.09-8.53-.32-3.64,1.54-6.58,9.95-8.28,13.31-5.5,10.89-9.83,22.31-15.2,33.24-2.79,5.68-7,9.42-13.55,9.52-7.39.1-10.86-4.63-15.55-9.49-9.34-9.68-21.92-18-33.51-24.74-12.53-7.27-27.47-14.32-41.73-16.89-9.5-1.71-31.26-9.08-37,2.83,3-.39,14.23-2.12,14.7,2.88.36,3.75-13.5,4.39-15.21,10.27,3.62-.29,16.13-3.78,17,1.61.47,2.86-4.76,4.31-6.6,5.27a33.27,33.27,0,0,0-8.71,6.79c4.43,0,8.8-3.76,13-3.37,1.73.17,3.82,2.76,5.4,3.55a21.47,21.47,0,0,0,7.12,2c5.37.67,8.62-.85,12.91,2.65,3.84,3.14,7.84,7.29,11.38,10.79,7.57,7.47,13.79,16.94,20.28,25.33a128.62,128.62,0,0,0,27,26.34c8.67,6.32,17.46,10.41,27.29,15.05,9.64,4.57,21.77,9.85,32.7,10.11,8.73.2,19.63-2.6,27.57-6.33,4.62-2.16,6.3-2.16,10.92-3,7.17-1.33,15.47-5.18,22.11-8.2,20.85-9.48,34.06-30.16,43.46-50.39a139.78,139.78,0,0,0,10.92-35.23c1.22-6.79,2.27-8.38-4.34-11.19s-13.9-4.58-20.85-6.59C400.24,353,377,351.66,355.94,352.55Zm49.81-122.83c-2.08.94-3.18,10.94-4.12,13.17-4.16,10-11.55,16.15-22.39,17.19-3.37.32-8.85-2.75-11.27-1.3-3.22,1.94-3.81,11.21-7.28,14.25-3.2,2.8-9.86,5.76-14,6.84a19.42,19.42,0,0,1-9.46-.13c-1.8-.42-5.23-2.64-7-1.8-3,1.43-4.41,9-7.84,11.62-5,3.78-13,6.58-19.1,6.51-6.32-.08-13.94-5.07-19.57-3.88-6.69,1.42-5.81,7.64-8.73,12.5-6.2,10.32-13.24,19.21-24.38,24.14-12,5.33-29.33,6-42,3.3-6.87-1.48-13.77-3.56-19.56-7.5-4.62-3.14-8.09-7.32-12.37-10.87l-.7-.56,0,.12c.1.33.19.66.29,1,2,6.5,2.95,18,7,23.33,3.63,4.74,16.21,5,22.26,5.64,16.23,1.71,30.19,5.51,44.51,13.65A245.83,245.83,0,0,1,288.2,384.3c2.44,2.09,4.39,5.44,7.33,6.78,4.82,2.19,4.43-.37,5.7-4.66,2.62-8.79,5.39-17.48,9.37-25.77,1.7-3.55,5.58-7.95,6.41-11.73.8-3.62-.84-7.57-.28-11.45,1.4-9.82,5.83-18.19,11.39-26.13,3.86-5.51,15.39-14.9,13.92-1-1.09,10.25-8.57,19.32-10.41,29.39,5.67-1.06,9.23-.75,14.34-.43,7,.44,14.88-2.29,22.06-2.31a224.42,224.42,0,0,1,40.86,3.31,114.47,114.47,0,0,1,18.28,4.57c4.74,1.68,11.06,7.05,16.12,7.45,3.66.3,2.38.78,3.38-2.35.93-2.9-.07-8.12-.25-11.17-.42-6.89-2.08-13.59-2.93-20.44-.37-2.94-3.87-15.18-.18-17.56,5.66-3.63,8,10.62,8.75,13.17,3.69,13.09,6.07,26,6,39.66a194.46,194.46,0,0,1-3.1,35,102.49,102.49,0,0,1-6.4,20.13c-1.41,3.43-9.73,16.44-8.58,18.73.93,1.84,15.07-1.36,17.24-1.54,7.74-.66,15.49-.2,23.24-.66,11.45-.68,23-.54,33.94-2.56,6.54-1.21,13.48-.06,20,0,7.2,0,14.16-.62,21.41.07,5.51.52,13.77,3.42,19.08,2.21s3.83-4.87,3.87-10.41c.09-13.37-1.1-28.77-4.09-41.77-1.57-6.86-3.69-13.5-4.82-20.47s-1.08-14.51-3.18-21.26c-3.73-12-14-22.38-22.48-31.24-8.75-9.11-18.47-15.73-29.2-22.26a245.44,245.44,0,0,0-28.63-15.11C474.48,257.2,461,254,450,247.12a127.27,127.27,0,0,0-32.92-14C415.44,232.71,406.93,229.19,405.75,229.72ZM731.41,119c-7.61,1.07-21.83-2.65-21.82,7.84,0,5.75,1.91,11.79,2.45,17.54.64,6.79.2,13.63,1.23,20.39,1.68,11,4.14,21.07,3.31,32.32-.89,12.23-3.44,24-3.21,36.39.23,11.81-.41,23.19,5.2,34,2.37,4.57,4.29,9.95,6.9,14.23,3,5,5.69,6.48,11.15,8.5,3.41,1.27,11.83,2.91,14,6.32,3.2,4.93-1.07,6.92-5.27,6.75-13-.52-26.31-6.31-38.48-10.54-5.73-2-11.24-4.5-16.86-6.67-4.5-1.74-8.17-2.34-12.26-5.3-10-7.22-17.65-17.2-27.48-24.61a129.13,129.13,0,0,0-64.24-24.86,80.77,80.77,0,0,0-16.67.16c-3.33.28-6.63.37-9.93,1-1.9.36-9.06,3.76-10.55,3-9.66-4.59,17.7-18.57,20.77-19.33-3.88-2.74-12-2.27-16.62-2.88-6-.78-11.74-1.54-17.75-1.21-8.4.46-17.34.21-25.59,2a117.26,117.26,0,0,0-29.45,10.65c-3.12,1.63-7.5,3.62-7.47,8.17,0,4.28,1.73,3.58,5.89,4.53,11.23,2.56,21.61,10,31.61,15.66a320.62,320.62,0,0,1,31.09,20c18.92,13.84,29.71,33.75,38.11,55.4a148,148,0,0,1,8.8,36.2c1.46,13.27.25,26.63,1.28,39.89.25,3.13.67,15.64,3,17.58,1.8,1.48,10.7-1.16,13.21-1.33,10.49-.72,21-.65,31.33-1.25,21.75-1.25,44.05.5,66-.79a225.79,225.79,0,0,0,32.55-4.43c10.07-2.07,22.61-2.32,31.79-7.1,17.67-9.21,28.44-31.41,29.22-50.2.84-20.37-.55-42.54-4.83-62.84-2.25-10.64-4.19-20.77-6.83-31.29-3-11.77-6.27-23.49-9.52-35.12-5.58-20-14.28-38.67-18.44-59.18-2.29-11.29-5.53-23.09-8.92-34.1-1.25-4.06-3.71-11.77-6.62-14.86C738.51,116.49,736,118.35,731.41,119Zm-620,243.79c-4.58,2.93-7.88,9.52-7.67,15,0,7.17,6,4.12,11.56,4.38,3.41.16,16,3.66,18.27.28,2.65-4-5.33-2.24-6.34-4.41-2-4.38,7.32-6.23,6.18-10s-10.66,5-12.69.56c-1.89-4.08,7.71-7.61,6.24-10.42C125.67,355.71,113,361.74,111.37,362.78Zm19.89-37.37c0,3-1.07,7.12-4.87,6.49-4.75-.77-6.19-9.89-6.62-13.33C122.81,307.21,131.32,318.44,131.26,325.41Zm137.81-97.57c-5.49.86-6.11,3.32-8.67,7.09a5.89,5.89,0,0,1-2.18-3.71c-13,5.84-26.47,10.41-40.54,12.57-15.68,2.41-32-1.24-48-2.72-2.06-.2-8.39-2.75-10.07-1.73-1.39.83-1.37,7.87-1.48,9.22-.77,9.27,1,17.45,2.35,26.52.37,2.41,0,7.64,1.91,9.7,1.34,1.45,3.72.92,5.42,3.11,4.56,5.9,6,17.32,8.09,24.93l0,.19v-.14c.65-7.76,6.72-3.77,11.23-1.74a76.92,76.92,0,0,0,21.23,5.72c5.9.83,12.59,2.81,18.64,2.49,6.36-.33,14.18-2.85,20.37-4.66,5.86-1.71,9.1-5.42,13.14-10.2,3.87-4.57,8.08-7.69,12.25-11.77,10.51-10.26,7.63-31.52-1.5-41.57,7.39-3.79,20.2-12.12,9-20.57A16.43,16.43,0,0,0,269.07,227.84ZM176,313v.14h0l.07.05Zm36-17.62c2.92.22,5,2.41,4.24,5.43-1,3.81-7.6,6.2-10.91,6.41C196.51,308.28,204.82,294.85,212,295.39Zm-27.74-14.67c.31,2.21,0,3.59,1.92,4.31,1.47.55,4.24-.58,6,.18s1.85,1.23,3,3c-1.25,3.92-7,8.35-11.61,6-5.73-2.93-6.26-14.49-4.69-19.42C181.52,266.45,183.76,277.41,184.23,280.72ZM694,236.58c-2.39.87-4.5,3.33-6.64,4.67-5.69,3.57-11.91,5.46-17.36,9.37,3.89,4.2,5.93,9.89,9.73,13.93,2.37,2.53,5.27,2.81,8.13,4.18,8.36,4,18.19,9.66,27.43,11.57a69.37,69.37,0,0,1-12-19.73,91.81,91.81,0,0,1-3.45-8.51c-1.23-4.09-.57-8.41-1.61-12.45C697,235.26,698.59,234.9,694,236.58ZM168.46,260.52c2.43,2.87,4.3,9.34,4.51,13-2.57,12.28-11.15-4.67-10.89-10.17C162.32,258.29,165,256.42,168.46,260.52Zm23.26-6.72c4.17,3.56,5.53,9.49,6,14.4.47,5.31-.75,7.57-6,4.15-4.63-3-6.95-11-7.19-15.62C184.45,251.41,187.68,250.36,191.72,253.8Zm83.81-15.21c1,5.55-11.24,11.25-9.23,2.56C265.89,235.61,274.43,232.71,275.53,238.59Zm580-100.38c-9.28,11.33-20.51,18.52-32.12,27.08-10.29,7.58-20.08,15.78-31.21,22.07-3.27,1.85-8.63,2.92-9.22,6.36-.55,3.23,5.44,11.9,6.83,15.4,4.67,11.81,8.12,23.93,11.78,36.11,10.9-17,21.89-34.25,35.24-49.61,11.79-13.55,23.88-27.73,34.18-42.33A50.72,50.72,0,0,1,855.48,138.21Zm68-26.12c-10.33,3.23-22.23,5-33,4-4.88-.5-9.69-.92-14.62-1.22-3.69-.23-9.93-2-13.1.82-3,2.68-2.64,8-1.11,11.38,1,2.16,2.36,2.51,3.25,4.3.29.57-.56,1.57.18,2.92,2,3.73,9,10,12.73,11.86,4.8,2.44,5.52-.39,9.27-2.85,7.88-5.17,21.12-5.26,30.35-6.19.19,2,27-7.56,29.59-9.32,4.94-3.27,10.73-18.35,5.47-22.82C946.15,99.52,929.62,110.17,923.48,112.09Zm-180-71.88C740.28,45.39,736,51,731.15,54.83c-5.43,4.38-12.47,6.08-18.67,9.08-5.62,2.71-10.61,5.43-14.12,10.67-2.43,3.62-6.87,8.7-4.85,13.37s10.25,8.12,13.8,12.27c4.89,5.71,4.89,4.59,12.22,3a43,43,0,0,1,10.86-.9c1.52,0,6.62,1.53,8,.54,1.72-1.28,0-6.57.25-8.63a41.35,41.35,0,0,1,2.5-9.31c4.18-11.72,12.13-19.45,19.87-28.34,8.29-9.53,19.66-16.22,27.83-25.8,4.52-5.29,2.46-9-3.73-11.51C781.92,18,778.23,18,775,17s-6.31-3.08-9.89-3.12C749.9,13.3,749.42,30.83,743.53,40.21Z"/></g></g></svg>